<svg width="17" height="17" viewBox="0 0 17 17" fill="none" xmlns="http://www.w3.org/2000/svg">
<path d="M8.5 17C8.45994 17 8.41993 16.9997 8.38 16.9991L1.27822 16.9446C0.94296 16.9416 0.848637 16.4836 1.15544 16.3459C1.83642 16.0406 2.48007 15.653 2.48015 15.2758C2.48015 14.7452 2.14922 14.1975 1.9253 13.8875C0.722185 12.421 -1.92596e-06 10.5449 -1.74719e-06 8.5C1.74894e-06 3.80559 3.80558 5.56178e-07 8.5 9.66577e-07C13.1944 8.16556e-06 17 3.80559 17 8.5C17 13.1944 13.1944 17 8.5 17Z" fill="#0070F5"/>
</svg>
