<svg width="17" height="17" viewBox="0 0 17 17" fill="none" xmlns="http://www.w3.org/2000/svg">
<path d="M8.5 16.2998C8.46369 16.2998 8.42693 16.2993 8.38965 16.2988L8.38574 16.2988L2.66895 16.2549C2.76136 16.1734 2.85089 16.0824 2.92773 15.9805C3.05304 15.8143 3.17951 15.5743 3.17969 15.2764L3.17969 15.2754C3.17952 14.5045 2.72454 13.7979 2.49316 13.4775L2.48047 13.46L2.4668 13.4434C1.36258 12.0974 0.700196 10.3771 0.700196 8.5C0.7002 4.19218 4.19219 0.700194 8.5 0.700195C12.8078 0.700202 16.2998 4.19219 16.2998 8.5C16.2998 12.8078 12.8078 16.2998 8.5 16.2998Z" stroke="#9FA5B2" stroke-width="1.4"/>
</svg>
