<svg width="24" height="24" viewBox="0 0 24 24" fill="none" xmlns="http://www.w3.org/2000/svg">
<path d="M12 2.9502C12.354 2.9502 12.653 3.05262 12.9219 3.26074L12.9258 3.26367L19.6758 8.40723L19.6816 8.41113C19.8714 8.55253 20.0215 8.73239 20.1338 8.95996C20.2456 9.1866 20.3003 9.42272 20.2998 9.67676V19.9639C20.2998 20.4086 20.1518 20.7709 19.8398 21.0879C19.5281 21.4046 19.1775 21.5503 18.751 21.5498H15.375C15.2364 21.5498 15.1515 21.5104 15.0732 21.4307C15.0131 21.3693 14.974 21.3015 14.958 21.208L14.9502 21.1055V15.3926C14.9501 14.8956 14.7767 14.4441 14.4238 14.0869C14.0718 13.7307 13.6241 13.5511 13.127 13.5498H10.875C10.3761 13.5498 9.92646 13.7298 9.57422 14.0889C9.22393 14.446 9.05096 14.8961 9.0498 15.3916V21.1074C9.04975 21.2579 9.0066 21.3495 8.92676 21.4307C8.84759 21.5111 8.76353 21.5501 8.62695 21.5498H5.25C4.8218 21.5498 4.47094 21.4036 4.16016 21.0879C3.84924 20.7719 3.70082 20.41 3.7002 19.9639V9.67871C3.7002 9.42407 3.75517 9.18713 3.86719 8.95996C3.97968 8.73195 4.1301 8.55249 4.31934 8.41113L4.32422 8.40723L11.0742 3.26367L11.0781 3.26074C11.347 3.05262 11.646 2.9502 12 2.9502Z" stroke="#9FA5B2" stroke-width="1.4"/>
</svg>
