<svg width="28" height="26" viewBox="0 0 28 26" fill="none" xmlns="http://www.w3.org/2000/svg">
<path d="M14 0C6.26775 0 0 5.00728 0 11.1876C0 15.2089 2.65408 18.7332 6.64048 20.7051C6.34705 21.8086 5.58044 24.7077 5.42711 25.3276C5.23678 26.0972 5.70468 26.0865 6.01397 25.8807C6.25453 25.7177 9.8497 23.2462 11.4014 22.18C12.2447 22.3056 13.1118 22.3724 14 22.3724C21.7323 22.3724 28 17.3652 28 11.1876C28 5.00995 21.7323 0 14 0Z" fill="#371C1D"/>
<path d="M4.23263 9.1251H5.67334C5.67334 9.1251 5.68127 13.125 5.67334 14.0576C5.67334 14.7389 7.17221 14.7469 7.16956 14.0683L7.17485 9.17854C7.17485 9.17854 7.65861 9.18121 8.60763 9.18121C9.50378 9.18121 9.50378 7.75705 8.60763 7.75705C7.59781 7.75705 4.2247 7.72766 4.2247 7.72766C3.37878 7.72766 3.38142 9.1251 4.2247 9.1251" fill="#F9E000"/>
<mask id="mask0_59_314" style="mask-type:luminance" maskUnits="userSpaceOnUse" x="3" y="7" width="7" height="8">
<path d="M4.23263 9.1251H5.67334C5.67334 9.1251 5.68127 13.125 5.67334 14.0576C5.67334 14.7389 7.17221 14.7469 7.16956 14.0683L7.17485 9.17854C7.17485 9.17854 7.65861 9.18121 8.60763 9.18121C9.50378 9.18121 9.50378 7.75705 8.60763 7.75705C7.59781 7.75705 4.2247 7.72766 4.2247 7.72766C3.37878 7.72766 3.38142 9.1251 4.2247 9.1251" fill="white"/>
</mask>
<g mask="url(#mask0_59_314)">
<path d="M9.50633 7.73022H3.38397V14.7495H9.50633V7.73022Z" fill="#F9E000"/>
</g>
<path d="M11.1296 9.38419L11.9305 11.9226H10.2598L11.1296 9.38419ZM10.2308 8.19516C9.87653 8.98339 8.59443 12.7108 8.17147 13.6994C7.86482 14.4128 9.18922 14.9953 9.49587 14.2819L9.78401 13.2639H12.4196C12.4196 13.2639 12.3297 13.3066 12.6786 14.2392C12.9615 14.9953 14.3308 14.4716 14.048 13.7155C13.6435 12.636 12.2425 8.74559 11.986 8.19516C11.8697 7.94132 11.4468 7.75696 11.037 7.75696C10.6987 7.75696 10.3682 7.88254 10.2281 8.19516" fill="#F9E000"/>
<mask id="mask1_59_314" style="mask-type:luminance" maskUnits="userSpaceOnUse" x="8" y="7" width="7" height="8">
<path d="M11.1296 9.38419L11.9305 11.9226H10.2598L11.1296 9.38419ZM10.2308 8.19516C9.87653 8.98339 8.59443 12.7108 8.17147 13.6994C7.86482 14.4128 9.18922 14.9953 9.49587 14.2819L9.78401 13.2639H12.4196C12.4196 13.2639 12.3297 13.3066 12.6786 14.2392C12.9615 14.9953 14.3308 14.4716 14.048 13.7155C13.6435 12.636 12.2425 8.74559 11.986 8.19516C11.8697 7.94132 11.4468 7.75696 11.037 7.75696C10.6987 7.75696 10.3682 7.88254 10.2281 8.19516" fill="white"/>
</mask>
<g mask="url(#mask1_59_314)">
<path d="M14.3334 7.75964H7.86212V15.0007H14.3334V7.75964Z" fill="#F9E000"/>
</g>
<path d="M14.5556 8.42762C14.5556 9.69414 14.5635 13.7769 14.5635 13.7769C14.5635 13.7769 14.4472 14.5892 15.1372 14.5892C15.8271 14.5892 17.3524 14.5812 18.0292 14.5812C18.7059 14.5812 18.7033 13.125 18.0265 13.125C17.3498 13.125 16.1126 13.1169 16.1126 13.1169C16.1126 13.1169 16.1179 9.34144 16.1153 8.42228C16.1153 7.97873 15.724 7.75696 15.3354 7.75696C14.9469 7.75696 14.553 7.9814 14.5556 8.42495" fill="#F9E000"/>
<mask id="mask2_59_314" style="mask-type:luminance" maskUnits="userSpaceOnUse" x="14" y="7" width="5" height="8">
<path d="M14.5556 8.42762C14.5556 9.69414 14.5635 13.7769 14.5635 13.7769C14.5635 13.7769 14.4472 14.5892 15.1372 14.5892C15.8271 14.5892 17.3524 14.5812 18.0292 14.5812C18.7059 14.5812 18.7033 13.125 18.0265 13.125C17.3498 13.125 16.1126 13.1169 16.1126 13.1169C16.1126 13.1169 16.1179 9.34144 16.1153 8.42228C16.1153 7.97873 15.724 7.75696 15.3354 7.75696C14.9469 7.75696 14.553 7.9814 14.5556 8.42495" fill="white"/>
</mask>
<g mask="url(#mask2_59_314)">
<path d="M18.7059 7.75964H14.4472V14.5892H18.7059V7.75964Z" fill="#F9E000"/>
</g>
<path d="M18.8856 8.22725C18.9014 8.78302 18.8671 13.8063 18.8671 14.1777C18.8671 14.7656 20.3474 14.7629 20.3474 14.1777C20.3474 13.4964 20.3474 12.2005 20.3474 12.2005L20.781 11.8478L22.6816 14.4663C23.065 14.9793 24.273 14.0522 23.8897 13.5418L21.8727 10.8565C21.8727 10.8565 23.2421 9.36017 23.7813 8.81776C24.0959 8.50247 23.1205 7.50849 22.8059 7.82646C22.5019 8.13106 20.3554 10.3034 20.3554 10.3034C20.3554 10.3034 20.3739 8.94067 20.3554 8.18717C20.3474 7.90127 20.0011 7.76233 19.6443 7.76233C19.2636 7.76233 18.875 7.91997 18.8829 8.22725" fill="#F9E000"/>
<mask id="mask3_59_314" style="mask-type:luminance" maskUnits="userSpaceOnUse" x="18" y="7" width="6" height="8">
<path d="M18.8856 8.22725C18.9014 8.78302 18.8671 13.8063 18.8671 14.1777C18.8671 14.7656 20.3474 14.7629 20.3474 14.1777C20.3474 13.4964 20.3474 12.2005 20.3474 12.2005L20.781 11.8478L22.6816 14.4663C23.065 14.9793 24.273 14.0522 23.8897 13.5418L21.8727 10.8565C21.8727 10.8565 23.2421 9.36017 23.7813 8.81776C24.0959 8.50247 23.1205 7.50849 22.8059 7.82646C22.5019 8.13106 20.3554 10.3034 20.3554 10.3034C20.3554 10.3034 20.3739 8.94067 20.3554 8.18717C20.3474 7.90127 20.0011 7.76233 19.6443 7.76233C19.2636 7.76233 18.875 7.91997 18.8829 8.22725" fill="white"/>
</mask>
<g mask="url(#mask3_59_314)">
<path d="M24.273 7.51123H18.867V14.9821H24.273V7.51123Z" fill="#F9E000"/>
</g>
</svg>
