<svg width="24" height="17" viewBox="0 0 24 17" fill="none" xmlns="http://www.w3.org/2000/svg">
<mask id="path-1-inside-1_78_455" fill="white">
<path d="M8.5 0C8.99636 -2.96186e-08 9.12847 0.647577 8.73438 0.949219C6.4644 2.68515 5 5.42163 5 8.5C5 11.6346 6.51899 14.4128 8.86035 16.1426C9.18933 16.3856 9.02911 16.9958 8.62012 16.999C8.58019 16.9996 8.54006 17 8.5 17C3.80559 17 4.10399e-07 13.1944 0 8.5C3.13773e-06 3.80559 3.80559 7.19899e-06 8.5 0ZM15.5 0C20.1944 -1.22597e-07 24 3.80559 24 8.5C24 10.5449 23.2773 12.4212 22.0742 13.8877C21.8504 14.1977 21.5197 14.7451 21.5195 15.2754C21.5196 15.6525 22.1638 16.0404 22.8447 16.3457C23.1515 16.4835 23.0569 16.9413 22.7217 16.9443L15.6201 16.999C15.5802 16.9996 15.5401 17 15.5 17C15.0938 17 14.6947 16.9691 14.3037 16.9141C14.295 16.9128 14.2861 16.9124 14.2773 16.9111C14.1685 16.8954 14.0606 16.8762 13.9531 16.8564C13.9232 16.8509 13.8931 16.8466 13.8633 16.8408C13.7728 16.8232 13.6832 16.8027 13.5938 16.7822C13.5491 16.772 13.5044 16.7619 13.46 16.751C13.3582 16.7259 13.2575 16.6986 13.1572 16.6699C13.1364 16.664 13.1155 16.6585 13.0947 16.6523C12.9969 16.6235 12.9 16.5927 12.8037 16.5605C12.7666 16.5481 12.7293 16.5363 12.6924 16.5234C12.605 16.4929 12.5187 16.4601 12.4326 16.4268C12.3918 16.411 12.351 16.3953 12.3105 16.3789C12.2232 16.3435 12.1367 16.3067 12.0508 16.2686C12.0204 16.2551 11.9901 16.2414 11.96 16.2275C11.872 16.1872 11.7846 16.1458 11.6982 16.1025C11.6589 16.0828 11.62 16.0623 11.5811 16.042C11.5115 16.0058 11.4425 15.9687 11.374 15.9307C11.3269 15.9044 11.28 15.8777 11.2334 15.8506C11.1624 15.8093 11.0921 15.7669 11.0225 15.7236C10.9732 15.693 10.9246 15.6615 10.876 15.6299C10.8154 15.5905 10.7548 15.5516 10.6953 15.5107C10.6601 15.4866 10.6257 15.4612 10.5908 15.4365C10.5157 15.3832 10.4405 15.3301 10.3672 15.2744C10.3372 15.2517 10.3079 15.2282 10.2783 15.2051C10.2083 15.1505 10.1385 15.0958 10.0703 15.0391C10.0076 14.987 9.94687 14.9327 9.88574 14.8789C9.5822 14.6115 9.2979 14.3233 9.03516 14.0156C9.00998 13.9862 8.98377 13.9576 8.95898 13.9277C8.91695 13.8771 8.87681 13.825 8.83594 13.7734C8.79533 13.7222 8.75428 13.6713 8.71484 13.6191C8.68058 13.5738 8.64763 13.5275 8.61426 13.4814C8.56423 13.4124 8.51478 13.343 8.4668 13.2725C8.44578 13.2416 8.42589 13.2099 8.40527 13.1787C8.35685 13.1054 8.30889 13.0319 8.2627 12.957C8.23004 12.9041 8.19851 12.8505 8.16699 12.7969C8.13126 12.736 8.09577 12.6751 8.06152 12.6133C8.02258 12.543 7.98523 12.4719 7.94824 12.4004C7.92857 12.3624 7.90876 12.3245 7.88965 12.2861C7.85376 12.2141 7.81905 12.1415 7.78516 12.0684C7.75871 12.0113 7.73224 11.9542 7.70703 11.8965C7.68243 11.8401 7.65817 11.7836 7.63477 11.7266C7.6073 11.6597 7.58146 11.5921 7.55566 11.5244C7.52904 11.4545 7.50333 11.3842 7.47852 11.3135C7.46169 11.2655 7.44567 11.2173 7.42969 11.1689C7.40536 11.0953 7.38075 11.0217 7.3584 10.9473C7.3355 10.871 7.31474 10.794 7.29395 10.7168C7.28108 10.669 7.26791 10.6213 7.25586 10.5732C7.23501 10.4901 7.21565 10.4064 7.19727 10.3223C7.18613 10.2713 7.17525 10.2202 7.16504 10.1689C7.14995 10.0932 7.13708 10.0169 7.12402 9.94043C7.11315 9.87676 7.10124 9.81317 7.0918 9.74902C7.08149 9.67902 7.07305 9.60863 7.06445 9.53809C7.05646 9.47249 7.0475 9.40687 7.04102 9.34082C7.03366 9.26597 7.02981 9.19065 7.02441 9.11523C7.01886 9.03766 7.01224 8.95997 7.00879 8.88184C7.00319 8.75525 7 8.62797 7 8.5L7.01074 8.0625C7.01747 7.9298 7.02827 7.79801 7.04102 7.66699C7.04412 7.63504 7.04732 7.60314 7.05078 7.57129C7.06135 7.47407 7.07407 7.37745 7.08789 7.28125C7.0937 7.24082 7.0991 7.2004 7.10547 7.16016C7.14601 6.9042 7.19788 6.6521 7.26074 6.4043C7.26803 6.37558 7.27563 6.34696 7.2832 6.31836C7.30613 6.23181 7.33088 6.14598 7.35645 6.06055C7.36971 6.0162 7.38252 5.97177 7.39648 5.92773C7.43287 5.81305 7.47163 5.69943 7.5127 5.58691C7.52053 5.56543 7.52813 5.54386 7.53613 5.52246C7.57292 5.42417 7.61206 5.32699 7.65234 5.23047C7.66555 5.19881 7.67881 5.1672 7.69238 5.13574C7.72621 5.05738 7.76078 4.97946 7.79688 4.90234C7.81756 4.85814 7.83893 4.8143 7.86035 4.77051C7.9649 4.55686 8.0787 4.34863 8.2002 4.14551C8.22441 4.105 8.24857 4.06449 8.27344 4.02441C8.39943 3.82153 8.53267 3.62363 8.6748 3.43262C8.7003 3.39834 8.72693 3.36494 8.75293 3.33105C8.79784 3.27256 8.84327 3.21451 8.88965 3.15723C8.9234 3.11552 8.95767 3.07426 8.99219 3.0332C9.04449 2.97104 9.09831 2.91023 9.15234 2.84961C9.17828 2.8205 9.20317 2.79047 9.22949 2.76172C9.30276 2.68175 9.37786 2.60348 9.4541 2.52637C9.49908 2.48084 9.54483 2.43611 9.59082 2.3916C9.63402 2.34982 9.6776 2.30844 9.72168 2.26758C9.76307 2.22919 9.80453 2.19089 9.84668 2.15332C9.89837 2.10727 9.9511 2.06238 10.0039 2.01758C10.0423 1.985 10.0802 1.95182 10.1191 1.91992C10.1739 1.87515 10.2303 1.83249 10.2861 1.78906C10.3698 1.72395 10.4549 1.66064 10.541 1.59863C10.587 1.56551 10.633 1.53222 10.6797 1.5C10.7209 1.47155 10.7619 1.44278 10.8037 1.41504C10.861 1.377 10.9193 1.34039 10.9775 1.30371C11.0654 1.24841 11.1542 1.19472 11.2441 1.14258C11.2967 1.11211 11.3491 1.08113 11.4023 1.05176C11.4667 1.01628 11.5323 0.983065 11.5977 0.949219C11.6326 0.931152 11.667 0.912127 11.7021 0.894531C11.7697 0.860748 11.8377 0.827922 11.9062 0.795898C11.9405 0.779873 11.9752 0.764603 12.0098 0.749023C13.0748 0.268711 14.2558 2.13077e-06 15.5 0Z"/>
</mask>
<path d="M8.5 0V-1.4H8.5L8.5 0ZM8.73438 0.949219L9.58483 2.0613L9.58529 2.06095L8.73438 0.949219ZM5 8.5L3.6 8.5L3.6 8.5H5ZM8.86035 16.1426L8.02846 17.2686L8.02851 17.2687L8.86035 16.1426ZM8.62012 16.999L8.60909 15.599L8.60075 15.5992L8.62012 16.999ZM8.5 17L8.5 18.4H8.5V17ZM0 8.5L-1.4 8.5V8.5H0ZM15.5 0V-1.4H15.5L15.5 0ZM24 8.5H25.4V8.5L24 8.5ZM22.0742 13.8877L20.9919 12.9997L20.9645 13.0331L20.9392 13.0681L22.0742 13.8877ZM21.5195 15.2754L20.1195 15.2749V15.2757L21.5195 15.2754ZM22.8447 16.3457L23.4183 15.0686L23.4175 15.0682L22.8447 16.3457ZM22.7217 16.9443L22.7325 18.3443L22.7342 18.3443L22.7217 16.9443ZM15.6201 16.999L15.6093 15.599L15.6007 15.5992L15.6201 16.999ZM15.5 17L15.5 18.4H15.5V17ZM14.3037 16.9141L14.499 15.5278L14.499 15.5278L14.3037 16.9141ZM14.2773 16.9111L14.0777 18.2968L14.0777 18.2968L14.2773 16.9111ZM13.9531 16.8564L14.2064 15.4795L14.2063 15.4795L13.9531 16.8564ZM13.8633 16.8408L13.5952 18.2149L13.5953 18.2149L13.8633 16.8408ZM13.5938 16.7822L13.9065 15.4176L13.9065 15.4176L13.5938 16.7822ZM13.46 16.751L13.125 18.1103L13.1251 18.1103L13.46 16.751ZM13.1572 16.6699L13.5425 15.324L13.5424 15.3239L13.1572 16.6699ZM13.0947 16.6523L12.6991 17.9953L12.6992 17.9953L13.0947 16.6523ZM12.8037 16.5605L13.2477 15.2328L13.2475 15.2328L12.8037 16.5605ZM12.6924 16.5234L12.23 17.8449L12.2302 17.8449L12.6924 16.5234ZM12.4326 16.4268L12.9382 15.1212L12.938 15.1212L12.4326 16.4268ZM12.3105 16.3789L11.7848 17.6764L11.7849 17.6765L12.3105 16.3789ZM12.0508 16.2686L12.6196 14.9893L12.6194 14.9892L12.0508 16.2686ZM11.96 16.2275L11.3761 17.5L11.3763 17.5001L11.96 16.2275ZM11.6982 16.1025L12.3254 14.8509L12.3252 14.8508L11.6982 16.1025ZM11.5811 16.042L10.9345 17.2838L10.9347 17.2838L11.5811 16.042ZM11.374 15.9307L12.0548 14.7073L12.0546 14.7072L11.374 15.9307ZM11.2334 15.8506L10.5295 17.0607L10.5296 17.0609L11.2334 15.8506ZM11.0225 15.7236L11.7612 14.5344L11.761 14.5343L11.0225 15.7236ZM10.876 15.6299L10.1131 16.8038L10.1133 16.8039L10.876 15.6299ZM10.6953 15.5107L11.4878 14.3566L11.4876 14.3565L10.6953 15.5107ZM10.5908 15.4365L9.78108 16.5786L9.78127 16.5787L10.5908 15.4365ZM10.3672 15.2744L11.2135 14.1592L11.2133 14.159L10.3672 15.2744ZM10.2783 15.2051L9.41736 16.309L9.41755 16.3092L10.2783 15.2051ZM10.0703 15.0391L10.9653 13.9625L10.9651 13.9623L10.0703 15.0391ZM9.88574 14.8789L8.96038 15.9295L8.96056 15.9296L9.88574 14.8789ZM9.03516 14.0156L10.0998 13.1065L10.0996 13.1063L9.03516 14.0156ZM8.95898 13.9277L7.88209 14.8223L7.88223 14.8225L8.95898 13.9277ZM8.83594 13.7734L9.93321 12.904L9.93308 12.9038L8.83594 13.7734ZM8.71484 13.6191L7.59788 14.4632L7.598 14.4633L8.71484 13.6191ZM8.61426 13.4814L9.74787 12.6599L9.74776 12.6598L8.61426 13.4814ZM8.4668 13.2725L7.30904 14.0596L7.30914 14.0598L8.4668 13.2725ZM8.40527 13.1787L9.5733 12.4069L9.5732 12.4067L8.40527 13.1787ZM8.2627 12.957L7.07132 13.6923L7.0714 13.6924L8.2627 12.957ZM8.16699 12.7969L9.37423 12.0879L9.37415 12.0878L8.16699 12.7969ZM8.06152 12.6133L6.83698 13.2919L6.83705 13.292L8.06152 12.6133ZM7.94824 12.4004L9.1916 11.7569L9.19153 11.7568L7.94824 12.4004ZM7.88965 12.2861L6.63668 12.9107L6.63674 12.9108L7.88965 12.2861ZM7.78516 12.0684L9.05544 11.4798L9.05539 11.4797L7.78516 12.0684ZM7.70703 11.8965L6.42392 12.4565L6.42396 12.4566L7.70703 11.8965ZM7.63477 11.7266L8.92981 11.1947L8.92977 11.1946L7.63477 11.7266ZM7.55566 11.5244L6.24737 12.0228L6.2474 12.0229L7.55566 11.5244ZM7.47852 11.3135L8.79962 10.8501L8.79959 10.8501L7.47852 11.3135ZM7.42969 11.1689L6.10042 11.6083L6.10044 11.6084L7.42969 11.1689ZM7.3584 10.9473L8.69929 10.5448L8.69927 10.5447L7.3584 10.9473ZM7.29395 10.7168L5.94217 11.0811L5.94218 11.0811L7.29395 10.7168ZM7.25586 10.5732L8.61384 10.2328L8.61383 10.2328L7.25586 10.5732ZM7.19727 10.3223L5.82953 10.6211L5.82953 10.6211L7.19727 10.3223ZM7.16504 10.1689L8.53808 9.89554L8.53808 9.89551L7.16504 10.1689ZM7.12402 9.94043L5.744 10.1761L5.744 10.1761L7.12402 9.94043ZM7.0918 9.74902L8.47686 9.54504L8.47685 9.54502L7.0918 9.74902ZM7.06445 9.53809L5.67472 9.70734L5.67472 9.70736L7.06445 9.53809ZM7.04102 9.34082L8.43431 9.20401L8.43431 9.20399L7.04102 9.34082ZM7.02441 9.11523L5.62798 9.21515L5.62798 9.21515L7.02441 9.11523ZM7.00879 8.88184L8.40742 8.82V8.82L7.00879 8.88184ZM7 8.5L5.60042 8.46564L5.6 8.48281V8.5H7ZM7.01074 8.0625L5.61254 7.99161L5.61161 8.00986L5.61116 8.02814L7.01074 8.0625ZM7.04102 7.66699L8.43444 7.80257L8.43444 7.80254L7.04102 7.66699ZM7.05078 7.57129L5.65898 7.42L5.65898 7.42004L7.05078 7.57129ZM7.08789 7.28125L8.47367 7.48031L8.47367 7.48025L7.08789 7.28125ZM7.10547 7.16016L5.72271 6.94112L5.7227 6.94119L7.10547 7.16016ZM7.26074 6.4043L8.61776 6.74855L8.61779 6.74842L7.26074 6.4043ZM7.2832 6.31836L5.92989 5.95983L5.92985 5.95997L7.2832 6.31836ZM7.35645 6.06055L8.69767 6.46193L8.69772 6.46176L7.35645 6.06055ZM7.39648 5.92773L6.06204 5.50433L6.06199 5.50451L7.39648 5.92773ZM7.5127 5.58691L8.82783 6.06692L8.82791 6.06672L7.5127 5.58691ZM7.53613 5.52246L6.22494 5.03177L6.22486 5.03198L7.53613 5.52246ZM7.65234 5.23047L8.94435 5.76965L8.94445 5.76942L7.65234 5.23047ZM7.69238 5.13574L6.40704 4.58086L6.40694 4.5811L7.69238 5.13574ZM7.79688 4.90234L9.06484 5.49586L9.06496 5.49561L7.79688 4.90234ZM7.86035 4.77051L6.60284 4.15514L6.60272 4.1554L7.86035 4.77051ZM8.2002 4.14551L9.40167 4.86415L9.40184 4.86387L8.2002 4.14551ZM8.27344 4.02441L7.0841 3.28586L7.08392 3.28615L8.27344 4.02441ZM8.6748 3.43262L9.79799 4.26835L9.79821 4.26806L8.6748 3.43262ZM8.75293 3.33105L7.64242 2.47855L7.6422 2.47884L8.75293 3.33105ZM8.88965 3.15723L9.9777 4.03821L9.97793 4.03793L8.88965 3.15723ZM8.99219 3.0332L7.92092 2.13188L7.92068 2.13216L8.99219 3.0332ZM9.15234 2.84961L10.1975 3.7811L10.1977 3.78083L9.15234 2.84961ZM9.22949 2.76172L8.19719 1.81602L8.19694 1.81629L9.22949 2.76172ZM9.4541 2.52637L10.4497 3.51064L10.4499 3.51038L9.4541 2.52637ZM9.59082 2.3916L8.61756 1.38524L8.61731 1.38548L9.59082 2.3916ZM9.72168 2.26758L10.6735 3.29423L10.6738 3.294L9.72168 2.26758ZM9.84668 2.15332L8.91536 1.10802L8.91511 1.10824L9.84668 2.15332ZM10.0039 2.01758L10.9096 3.08519L10.9098 3.08498L10.0039 2.01758ZM10.1191 1.91992L9.2325 0.836472L9.23226 0.836668L10.1191 1.91992ZM10.2861 1.78906L11.1456 2.8942L11.1458 2.89402L10.2861 1.78906ZM10.541 1.59863L9.72334 0.462232L9.72312 0.462388L10.541 1.59863ZM10.6797 1.5L11.4745 2.65249L11.4747 2.65235L10.6797 1.5ZM10.8037 1.41504L10.0293 0.248704L10.0291 0.248834L10.8037 1.41504ZM10.9775 1.30371L11.7234 2.48848L11.7236 2.48836L10.9775 1.30371ZM11.2441 1.14258L10.5422 -0.0687127L10.542 -0.0686256L11.2441 1.14258ZM11.4023 1.05176L12.0781 2.27785L12.0783 2.27777L11.4023 1.05176ZM11.5977 0.949219L10.954 -0.294025L10.9539 -0.29397L11.5977 0.949219ZM11.7021 0.894531L12.3285 2.14661L12.3286 2.14656L11.7021 0.894531ZM11.9062 0.795898L11.3136 -0.472493L11.3136 -0.472463L11.9062 0.795898ZM12.0098 0.749023L12.5853 2.02526L12.5853 2.02524L12.0098 0.749023ZM8.5 0V1.4C8.30244 1.4 8.07631 1.32889 7.88828 1.16709C7.71198 1.01538 7.62241 0.830749 7.58659 0.674672C7.51793 0.375508 7.61653 0.0417943 7.88346 -0.162512L8.73438 0.949219L9.58529 2.06095C10.2463 1.555 10.4759 0.746678 10.3156 0.0483151C10.1446 -0.696887 9.48916 -1.4 8.5 -1.4V0ZM8.73438 0.949219L7.88392 -0.162865C5.28253 1.82651 3.6 4.96709 3.6 8.5L5 8.5L6.4 8.5C6.4 5.87617 7.64627 3.54379 9.58483 2.0613L8.73438 0.949219ZM5 8.5H3.6C3.6 12.098 5.34554 15.2865 8.02846 17.2686L8.86035 16.1426L9.69224 15.0165C7.69243 13.5391 6.4 11.1711 6.4 8.5H5ZM8.86035 16.1426L8.02851 17.2687C7.60959 16.9592 7.60713 16.5091 7.66641 16.292C7.72741 16.0686 8.00247 15.6038 8.60909 15.5991L8.62012 16.999L8.63115 18.399C9.64676 18.391 10.2064 17.6195 10.3675 17.0295C10.5269 16.4457 10.4401 15.569 9.69219 15.0165L8.86035 16.1426ZM8.62012 16.999L8.60075 15.5992C8.56342 15.5997 8.53065 15.6 8.5 15.6V17V18.4C8.54947 18.4 8.59695 18.3995 8.63949 18.3989L8.62012 16.999ZM8.5 17L8.5 15.6C4.57879 15.6 1.4 12.4212 1.4 8.5H0H-1.4C-1.4 13.9676 3.03239 18.4 8.5 18.4L8.5 17ZM0 8.5L1.4 8.5C1.4 4.57879 4.57879 1.40001 8.5 1.4L8.5 0L8.5 -1.4C3.03239 -1.39999 -1.4 3.03239 -1.4 8.5L0 8.5ZM15.5 0V1.4C19.4212 1.4 22.6 4.57878 22.6 8.5L24 8.5L25.4 8.5C25.4 3.03239 20.9676 -1.4 15.5 -1.4V0ZM24 8.5H22.6C22.6 10.2091 21.9973 11.7742 20.9919 12.9997L22.0742 13.8877L23.1566 14.7757C24.5574 13.0682 25.4 10.8807 25.4 8.5H24ZM22.0742 13.8877L20.9392 13.0681C20.7003 13.3989 20.1199 14.264 20.1195 15.2749L21.5195 15.2754L22.9195 15.2759C22.9195 15.2862 22.921 15.2236 22.9861 15.0814C23.0464 14.9496 23.1305 14.8163 23.2092 14.7073L22.0742 13.8877ZM21.5195 15.2754L20.1195 15.2757C20.1196 15.7781 20.3335 16.1636 20.5132 16.4019C20.6946 16.6424 20.9108 16.8272 21.0937 16.9626C21.4599 17.2338 21.898 17.4555 22.272 17.6232L22.8447 16.3457L23.4175 15.0682C23.2716 15.0028 23.1376 14.9374 23.0209 14.8737C22.902 14.8088 22.8161 14.754 22.7599 14.7123C22.6966 14.6655 22.7092 14.6636 22.7485 14.7157C22.7862 14.7656 22.9195 14.9613 22.9195 15.2751L21.5195 15.2754ZM22.8447 16.3457L22.2712 17.6228C21.2353 17.1576 21.5119 15.5551 22.7092 15.5444L22.7217 16.9443L22.7342 18.3443C24.602 18.3276 25.0677 15.8093 23.4183 15.0686L22.8447 16.3457ZM22.7217 16.9443L22.7109 15.5444L15.6093 15.5991L15.6201 16.999L15.6309 18.399L22.7325 18.3443L22.7217 16.9443ZM15.6201 16.999L15.6007 15.5992C15.5634 15.5997 15.5307 15.6 15.5 15.6V17V18.4C15.5495 18.4 15.5969 18.3995 15.6395 18.3989L15.6201 16.999ZM15.5 17L15.5 15.6C15.1648 15.6 14.8311 15.5745 14.499 15.5278L14.3037 16.9141L14.1084 18.3004C14.5582 18.3638 15.0229 18.4 15.5 18.4L15.5 17ZM14.3037 16.9141L14.499 15.5278C14.4762 15.5245 14.4574 15.5224 14.4453 15.5211C14.4391 15.5205 14.4339 15.52 14.4305 15.5196C14.4272 15.5193 14.4242 15.519 14.4237 15.519C14.4224 15.5188 14.4235 15.5189 14.4249 15.5191C14.4266 15.5192 14.4299 15.5196 14.4342 15.52C14.4427 15.521 14.4578 15.5227 14.477 15.5254L14.2773 16.9111L14.0777 18.2968C14.1012 18.3002 14.1208 18.3025 14.1336 18.3039C14.1401 18.3046 14.1457 18.3051 14.1495 18.3055C14.1532 18.3059 14.1564 18.3062 14.1574 18.3063C14.159 18.3064 14.1582 18.3063 14.1572 18.3062C14.1559 18.3061 14.1529 18.3058 14.149 18.3054C14.1413 18.3046 14.1268 18.303 14.1084 18.3004L14.3037 16.9141ZM14.2773 16.9111L14.477 15.5254C14.3966 15.5139 14.3111 15.4988 14.2064 15.4795L13.9531 16.8564L13.6999 18.2333C13.8102 18.2536 13.9404 18.277 14.0777 18.2968L14.2773 16.9111ZM13.9531 16.8564L14.2063 15.4795C14.19 15.4765 14.1754 15.474 14.1642 15.4721C14.154 15.4704 14.1427 15.4685 14.1377 15.4677C14.123 15.4653 14.1251 15.4655 14.1313 15.4667L13.8633 16.8408L13.5953 18.2149C13.6312 18.2219 13.6633 18.2273 13.6787 18.2298C13.6886 18.2315 13.6923 18.2321 13.6971 18.2329C13.7009 18.2335 13.7013 18.2336 13.6999 18.2334L13.9531 16.8564ZM13.8633 16.8408L14.1314 15.4667C14.0665 15.4541 13.9982 15.4386 13.9065 15.4176L13.5938 16.7822L13.281 18.1468C13.3682 18.1668 13.4791 18.1923 13.5952 18.2149L13.8633 16.8408ZM13.5938 16.7822L13.9065 15.4176C13.8545 15.4057 13.8251 15.3991 13.7948 15.3916L13.46 16.751L13.1251 18.1103C13.1837 18.1248 13.2436 18.1383 13.281 18.1469L13.5938 16.7822ZM13.46 16.751L13.7949 15.3916C13.7137 15.3716 13.6301 15.3491 13.5425 15.324L13.1572 16.6699L12.772 18.0159C12.8848 18.0482 13.0028 18.0802 13.125 18.1103L13.46 16.751ZM13.1572 16.6699L13.5424 15.3239C13.5244 15.3188 13.506 15.3138 13.4994 15.3119C13.4896 15.3092 13.4887 15.3089 13.4902 15.3094L13.0947 16.6523L12.6992 17.9953C12.7215 18.0019 12.7415 18.0074 12.7525 18.0105C12.7667 18.0144 12.7692 18.0151 12.7721 18.0159L13.1572 16.6699ZM13.0947 16.6523L13.4903 15.3094C13.4113 15.2861 13.3307 15.2606 13.2477 15.2328L12.8037 16.5605L12.3598 17.8883C12.4693 17.9249 12.5825 17.9609 12.6991 17.9953L13.0947 16.6523ZM12.8037 16.5605L13.2475 15.2328C13.1786 15.2097 13.1821 15.2115 13.1546 15.2019L12.6924 16.5234L12.2302 17.8449C12.2765 17.8611 12.3546 17.8866 12.3599 17.8883L12.8037 16.5605ZM12.6924 16.5234L13.1548 15.202C13.0892 15.1791 13.0198 15.1528 12.9382 15.1212L12.4326 16.4268L11.9271 17.7323C12.0176 17.7673 12.1208 17.8067 12.23 17.8449L12.6924 16.5234ZM12.4326 16.4268L12.938 15.1212C12.8917 15.1032 12.8639 15.0926 12.8362 15.0813L12.3105 16.3789L11.7849 17.6765C11.8382 17.6981 11.8919 17.7187 11.9272 17.7324L12.4326 16.4268ZM12.3105 16.3789L12.8363 15.0814C12.7635 15.0519 12.6913 15.0212 12.6196 14.9893L12.0508 16.2686L11.482 17.5478C11.582 17.5923 11.6829 17.6352 11.7848 17.6764L12.3105 16.3789ZM12.0508 16.2686L12.6194 14.9892C12.5942 14.978 12.5689 14.9666 12.5437 14.955L11.96 16.2275L11.3763 17.5001C11.4114 17.5162 11.4466 17.5321 11.4821 17.5479L12.0508 16.2686ZM11.96 16.2275L12.5438 14.9551C12.4656 14.9192 12.3934 14.8849 12.3254 14.8509L11.6982 16.1025L11.0711 17.3542C11.1758 17.4067 11.2784 17.4551 11.3761 17.5L11.96 16.2275ZM11.6982 16.1025L12.3252 14.8508C12.2988 14.8376 12.2773 14.8261 12.2274 14.8001L11.5811 16.042L10.9347 17.2838C10.9628 17.2985 11.019 17.3281 11.0713 17.3543L11.6982 16.1025ZM11.5811 16.042L12.2276 14.8002C12.1681 14.7693 12.1106 14.7384 12.0548 14.7073L11.374 15.9307L10.6933 17.154C10.7743 17.1991 10.8548 17.2423 10.9345 17.2838L11.5811 16.042ZM11.374 15.9307L12.0546 14.7072C12.0163 14.6859 11.9773 14.6637 11.9371 14.6403L11.2334 15.8506L10.5296 17.0609C10.5827 17.0917 10.6374 17.1229 10.6935 17.1541L11.374 15.9307ZM11.2334 15.8506L11.9373 14.6404C11.8791 14.6065 11.8204 14.5712 11.7612 14.5344L11.0225 15.7236L10.2837 16.9129C10.3639 16.9626 10.4457 17.012 10.5295 17.0607L11.2334 15.8506ZM11.0225 15.7236L11.761 14.5343C11.7259 14.5125 11.6893 14.4888 11.6387 14.4559L10.876 15.6299L10.1133 16.8039C10.1599 16.8341 10.2205 16.8736 10.2839 16.913L11.0225 15.7236ZM10.876 15.6299L11.6389 14.456C11.5692 14.4107 11.5285 14.3846 11.4878 14.3566L10.6953 15.5107L9.90284 16.6649C9.98102 16.7185 10.0617 16.7704 10.1131 16.8038L10.876 15.6299ZM10.6953 15.5107L11.4876 14.3565C11.4611 14.3383 11.4656 14.3405 11.4004 14.2943L10.5908 15.4365L9.78127 16.5787C9.78577 16.5819 9.85908 16.6348 9.90304 16.665L10.6953 15.5107ZM10.5908 15.4365L11.4006 14.2945C11.3212 14.2382 11.2654 14.1986 11.2135 14.1592L10.3672 15.2744L9.52088 16.3897C9.61562 16.4615 9.71007 16.5282 9.78108 16.5786L10.5908 15.4365ZM10.3672 15.2744L11.2133 14.159C11.1915 14.1425 11.1915 14.1419 11.1391 14.101L10.2783 15.2051L9.41755 16.3092C9.42435 16.3145 9.48301 16.3609 9.52107 16.3898L10.3672 15.2744ZM10.2783 15.2051L11.1393 14.1011C11.0692 14.0464 11.0149 14.0037 10.9653 13.9625L10.0703 15.0391L9.17537 16.1157C9.26216 16.1878 9.34748 16.2545 9.41736 16.309L10.2783 15.2051ZM10.0703 15.0391L10.9651 13.9623C10.9222 13.9267 10.8823 13.8911 10.8109 13.8282L9.88574 14.8789L8.96056 15.9296C9.0114 15.9744 9.09305 16.0473 9.17556 16.1158L10.0703 15.0391ZM9.88574 14.8789L10.8111 13.8283C10.5567 13.6043 10.319 13.3632 10.0998 13.1065L9.03516 14.0156L7.97054 14.9248C8.27675 15.2834 8.60766 15.6188 8.96038 15.9295L9.88574 14.8789ZM9.03516 14.0156L10.0996 13.1063C10.0788 13.0819 10.0568 13.057 10.0485 13.0476C10.0366 13.034 10.0348 13.0318 10.0357 13.033L8.95898 13.9277L7.88223 14.8225C7.90794 14.8534 7.93169 14.8805 7.94537 14.8961C7.96265 14.9157 7.96635 14.9199 7.97068 14.925L9.03516 14.0156ZM8.95898 13.9277L10.0359 13.0331C10.0076 12.9991 9.99012 12.9758 9.93321 12.904L8.83594 13.7734L7.73866 14.6429C7.76349 14.6742 7.82634 14.7552 7.88209 14.8223L8.95898 13.9277ZM8.83594 13.7734L9.93308 12.9038C9.88249 12.84 9.8583 12.8102 9.83169 12.7749L8.71484 13.6191L7.598 14.4633C7.65027 14.5325 7.70817 14.6044 7.73879 14.6431L8.83594 13.7734ZM8.71484 13.6191L9.83181 12.7751C9.80877 12.7446 9.79072 12.719 9.74787 12.6599L8.61426 13.4814L7.48064 14.303C7.50454 14.3359 7.55239 14.403 7.59788 14.4632L8.71484 13.6191ZM8.61426 13.4814L9.74776 12.6598C9.70186 12.5964 9.66142 12.5395 9.62445 12.4852L8.4668 13.2725L7.30914 14.0598C7.36813 14.1465 7.42661 14.2284 7.48076 14.3031L8.61426 13.4814ZM8.4668 13.2725L9.62456 12.4853C9.60529 12.457 9.62232 12.4811 9.5733 12.4069L8.40527 13.1787L7.23725 13.9505C7.24343 13.9599 7.24815 13.9672 7.26169 13.9881C7.27289 14.0054 7.28978 14.0313 7.30904 14.0596L8.4668 13.2725ZM8.40527 13.1787L9.5732 12.4067C9.52743 12.3375 9.4888 12.278 9.45399 12.2216L8.2627 12.957L7.0714 13.6924C7.12898 13.7857 7.18626 13.8734 7.23735 13.9507L8.40527 13.1787ZM8.2627 12.957L9.45407 12.2218C9.43059 12.1837 9.40636 12.1427 9.37423 12.0879L8.16699 12.7969L6.95975 13.5058C6.99066 13.5584 7.0295 13.6245 7.07132 13.6923L8.2627 12.957ZM8.16699 12.7969L9.37415 12.0878C9.33963 12.0291 9.31142 11.9804 9.286 11.9346L8.06152 12.6133L6.83705 13.292C6.88013 13.3697 6.92289 13.443 6.95984 13.5059L8.16699 12.7969ZM8.06152 12.6133L9.28607 11.9347C9.2568 11.8819 9.22661 11.8246 9.1916 11.7569L7.94824 12.4004L6.70489 13.0439C6.74385 13.1192 6.78837 13.2042 6.83698 13.2919L8.06152 12.6133ZM7.94824 12.4004L9.19153 11.7568C9.16848 11.7123 9.15556 11.6875 9.14256 11.6615L7.88965 12.2861L6.63674 12.9108C6.66196 12.9614 6.68866 13.0125 6.70495 13.044L7.94824 12.4004ZM7.88965 12.2861L9.14262 11.6616C9.11358 11.6033 9.08467 11.5429 9.05544 11.4798L7.78516 12.0684L6.51487 12.6569C6.55343 12.7401 6.59393 12.8249 6.63668 12.9107L7.88965 12.2861ZM7.78516 12.0684L9.05539 11.4797C9.02763 11.4198 9.00794 11.3772 8.9901 11.3364L7.70703 11.8965L6.42396 12.4566C6.45654 12.5312 6.4898 12.6028 6.51492 12.657L7.78516 12.0684ZM7.70703 11.8965L8.99014 11.3365C8.96775 11.2851 8.9479 11.2388 8.92981 11.1947L7.63477 11.7266L6.33972 12.2584C6.36845 12.3284 6.39711 12.3951 6.42392 12.4565L7.70703 11.8965ZM7.63477 11.7266L8.92977 11.1946C8.91007 11.1467 8.89021 11.0949 8.86393 11.026L7.55566 11.5244L6.2474 12.0229C6.27272 12.0893 6.30453 12.1727 6.33976 12.2585L7.63477 11.7266ZM7.55566 11.5244L8.86396 11.0261C8.84176 10.9678 8.82032 10.9092 8.79962 10.8501L7.47852 11.3135L6.15741 11.7768C6.18634 11.8593 6.21632 11.9413 6.24737 12.0228L7.55566 11.5244ZM7.47852 11.3135L8.79959 10.8501C8.78742 10.8154 8.77495 10.778 8.75893 10.7295L7.42969 11.1689L6.10044 11.6084C6.11638 11.6566 6.13597 11.7157 6.15744 11.7769L7.47852 11.3135ZM7.42969 11.1689L8.75896 10.7296C8.73207 10.6482 8.71477 10.5963 8.69929 10.5448L7.3584 10.9473L6.0175 11.3498C6.04674 11.4472 6.07865 11.5424 6.10042 11.6083L7.42969 11.1689ZM7.3584 10.9473L8.69927 10.5447C8.68305 10.4907 8.6674 10.433 8.64571 10.3525L7.29395 10.7168L5.94218 11.0811C5.96209 11.155 5.98794 11.2513 6.01752 11.3498L7.3584 10.9473ZM7.29395 10.7168L8.64572 10.3525C8.62992 10.2939 8.62195 10.2652 8.61384 10.2328L7.25586 10.5732L5.89788 10.9137C5.91388 10.9775 5.93223 11.0442 5.94217 11.0811L7.29395 10.7168ZM7.25586 10.5732L8.61383 10.2328C8.5971 10.1661 8.58098 10.0966 8.565 10.0234L7.19727 10.3223L5.82953 10.6211C5.85032 10.7162 5.87291 10.8141 5.89789 10.9137L7.25586 10.5732ZM7.19727 10.3223L8.56501 10.0235C8.55482 9.97682 8.54595 9.93503 8.53808 9.89554L7.16504 10.1689L5.792 10.4423C5.80456 10.5055 5.81745 10.5658 5.82953 10.6211L7.19727 10.3223ZM7.16504 10.1689L8.53808 9.89551C8.52754 9.84259 8.51813 9.78726 8.50405 9.70477L7.12402 9.94043L5.744 10.1761C5.75603 10.2465 5.77237 10.3438 5.792 10.4424L7.16504 10.1689ZM7.12402 9.94043L8.50405 9.7048C8.48809 9.61131 8.48325 9.58846 8.47686 9.54504L7.0918 9.74902L5.70674 9.953C5.71924 10.0379 5.73822 10.1422 5.744 10.1761L7.12402 9.94043ZM7.0918 9.74902L8.47685 9.54502C8.46964 9.49605 8.46346 9.44495 8.45418 9.36882L7.06445 9.53809L5.67472 9.70736C5.68264 9.77232 5.69333 9.86199 5.70674 9.95303L7.0918 9.74902ZM7.06445 9.53809L8.45418 9.36883C8.4429 9.27614 8.43869 9.24857 8.43431 9.20401L7.04102 9.34082L5.64772 9.47763C5.65631 9.56517 5.67003 9.66884 5.67472 9.70734L7.06445 9.53809ZM7.04102 9.34082L8.43431 9.20399C8.42929 9.15283 8.42901 9.12948 8.42084 9.01532L7.02441 9.11523L5.62798 9.21515C5.63061 9.25181 5.63804 9.3791 5.64772 9.47765L7.04102 9.34082ZM7.02441 9.11523L8.42084 9.01532C8.41349 8.91254 8.40975 8.87273 8.40742 8.82L7.00879 8.88184L5.61016 8.94367C5.61473 9.04721 5.62424 9.16279 5.62798 9.21515L7.02441 9.11523ZM7.00879 8.88184L8.40742 8.82C8.40261 8.71125 8.4 8.60475 8.4 8.5H7H5.6C5.6 8.65118 5.60377 8.79926 5.61016 8.94367L7.00879 8.88184ZM7 8.5L8.39958 8.53436L8.41032 8.09686L7.01074 8.0625L5.61116 8.02814L5.60042 8.46564L7 8.5ZM7.01074 8.0625L8.40895 8.13339C8.41424 8.02896 8.42302 7.91994 8.43444 7.80257L7.04102 7.66699L5.6476 7.53142C5.63352 7.67608 5.6207 7.83064 5.61254 7.99161L7.01074 8.0625ZM7.04102 7.66699L8.43444 7.80254C8.43732 7.77295 8.43994 7.74691 8.44259 7.72254L7.05078 7.57129L5.65898 7.42004C5.6547 7.45936 5.65093 7.49713 5.64759 7.53145L7.04102 7.66699ZM7.05078 7.57129L8.44258 7.72258C8.45091 7.64593 8.46136 7.56601 8.47367 7.48031L7.08789 7.28125L5.70212 7.08219C5.68679 7.1889 5.67178 7.30221 5.65898 7.42L7.05078 7.57129ZM7.08789 7.28125L8.47367 7.48025C8.48212 7.42144 8.48394 7.40629 8.48824 7.37912L7.10547 7.16016L5.7227 6.94119C5.71426 6.99451 5.70527 7.06021 5.70211 7.08225L7.08789 7.28125ZM7.10547 7.16016L8.48823 7.37919C8.52213 7.16518 8.56542 6.95486 8.61776 6.74855L7.26074 6.4043L5.90373 6.06004C5.83034 6.34933 5.7699 6.64323 5.72271 6.94112L7.10547 7.16016ZM7.26074 6.4043L8.61779 6.74842C8.62287 6.72838 8.62835 6.70771 8.63655 6.67675L7.2832 6.31836L5.92985 5.95997C5.9229 5.98621 5.91318 6.02277 5.90369 6.06018L7.26074 6.4043ZM7.2832 6.31836L8.63652 6.67689C8.65439 6.60944 8.67467 6.53879 8.69767 6.46193L7.35645 6.06055L6.01522 5.65917C5.98708 5.75318 5.95788 5.85419 5.92989 5.95983L7.2832 6.31836ZM7.35645 6.06055L8.69772 6.46176C8.71636 6.39945 8.72163 6.38044 8.73098 6.35096L7.39648 5.92773L6.06199 5.50451C6.04341 5.5631 6.02306 5.63295 6.01517 5.65933L7.35645 6.06055ZM7.39648 5.92773L8.73092 6.35114C8.76126 6.25552 8.79358 6.16078 8.82783 6.06692L7.5127 5.58691L6.19756 5.1069C6.14968 5.23809 6.10448 5.37057 6.06204 5.50433L7.39648 5.92773ZM7.5127 5.58691L8.82791 6.06672C8.84395 6.02275 8.84102 6.03 8.8474 6.01294L7.53613 5.52246L6.22486 5.03198C6.2179 5.0506 6.21175 5.06759 6.20742 5.07957C6.20226 5.0939 6.20026 5.09951 6.19748 5.10711L7.5127 5.58691ZM7.53613 5.52246L8.84732 6.01315C8.87616 5.9361 8.90835 5.85591 8.94435 5.76965L7.65234 5.23047L6.36034 4.69129C6.31577 4.79808 6.26968 4.91224 6.22494 5.03177L7.53613 5.52246ZM7.65234 5.23047L8.94445 5.76942C8.95716 5.73893 8.96775 5.71373 8.97783 5.69038L7.69238 5.13574L6.40694 4.5811C6.38986 4.62068 6.37393 4.65869 6.36024 4.69152L7.65234 5.23047ZM7.69238 5.13574L8.97773 5.69062C9.00802 5.62044 9.03659 5.55621 9.06484 5.49586L7.79688 4.90234L6.52891 4.30883C6.48496 4.40272 6.4444 4.49432 6.40704 4.58086L7.69238 5.13574ZM7.79688 4.90234L9.06496 5.49561C9.07991 5.46365 9.0964 5.42975 9.11799 5.38561L7.86035 4.77051L6.60272 4.1554C6.58147 4.19884 6.55521 4.25262 6.52879 4.30908L7.79688 4.90234ZM7.86035 4.77051L9.11786 5.38587C9.20398 5.20989 9.29883 5.03608 9.40167 4.86415L8.2002 4.14551L6.99872 3.42686C6.85857 3.66117 6.72582 3.90383 6.60284 4.15514L7.86035 4.77051ZM8.2002 4.14551L9.40184 4.86387C9.42791 4.82026 9.44553 4.79077 9.46296 4.76268L8.27344 4.02441L7.08392 3.28615C7.05161 3.3382 7.02091 3.38973 6.99855 3.42715L8.2002 4.14551ZM8.27344 4.02441L9.46278 4.76297C9.57071 4.58917 9.68205 4.42416 9.79799 4.26835L8.6748 3.43262L7.55162 2.59688C7.38329 2.8231 7.22814 3.05389 7.0841 3.28586L8.27344 4.02441ZM8.6748 3.43262L9.79821 4.26806C9.81768 4.24188 9.81398 4.24802 9.86366 4.18327L8.75293 3.33105L7.6422 2.47884C7.63988 2.48185 7.58292 2.55479 7.5514 2.59717L8.6748 3.43262ZM8.75293 3.33105L9.86344 4.18356C9.90317 4.1318 9.9409 4.08366 9.9777 4.03821L8.88965 3.15723L7.80159 2.27624C7.74564 2.34535 7.6925 2.41332 7.64242 2.47855L8.75293 3.33105ZM8.88965 3.15723L9.97793 4.03793C10.0044 4.00519 10.0327 3.97108 10.0637 3.93425L8.99219 3.0332L7.92068 2.13216C7.88261 2.17743 7.84238 2.22584 7.80136 2.27653L8.88965 3.15723ZM8.99219 3.0332L10.0635 3.93453C10.1019 3.88881 10.1443 3.84078 10.1975 3.7811L9.15234 2.84961L8.1072 1.91812C8.05233 1.97969 7.98706 2.05327 7.92092 2.13188L8.99219 3.0332ZM9.15234 2.84961L10.1977 3.78083C10.2193 3.7566 10.2412 3.73119 10.2494 3.72163C10.2613 3.70788 10.2631 3.70595 10.262 3.70715L9.22949 2.76172L8.19694 1.81629C8.16952 1.84624 8.14573 1.87369 8.13211 1.88943C8.11488 1.90934 8.11131 1.91351 8.10696 1.91839L9.15234 2.84961ZM9.22949 2.76172L10.2618 3.70742C10.3206 3.64324 10.3831 3.57805 10.4497 3.51064L9.4541 2.52637L8.45851 1.5421C8.37267 1.62892 8.28492 1.72025 8.19719 1.81602L9.22949 2.76172ZM9.4541 2.52637L10.4499 3.51038C10.4842 3.47568 10.5214 3.43922 10.5643 3.39772L9.59082 2.3916L8.61731 1.38548C8.56821 1.43299 8.51393 1.486 8.45826 1.54235L9.4541 2.52637ZM9.59082 2.3916L10.5641 3.39797C10.6011 3.36212 10.6375 3.32758 10.6735 3.29423L9.72168 2.26758L8.76985 1.24092C8.71767 1.2893 8.6669 1.33752 8.61756 1.38524L9.59082 2.3916ZM9.72168 2.26758L10.6738 3.294C10.7147 3.25599 10.7474 3.22593 10.7782 3.1984L9.84668 2.15332L8.91511 1.10824C8.86171 1.15585 8.8114 1.20239 8.7696 1.24116L9.72168 2.26758ZM9.84668 2.15332L10.778 3.19862C10.8155 3.16517 10.8564 3.13025 10.9096 3.08519L10.0039 2.01758L9.09826 0.949965C9.04575 0.994509 8.9812 1.04936 8.91536 1.10802L9.84668 2.15332ZM10.0039 2.01758L10.9098 3.08498C10.9712 3.03288 10.9789 3.02538 11.006 3.00318L10.1191 1.91992L9.23226 0.836668C9.18144 0.878274 9.11339 0.937125 9.09801 0.950172L10.0039 2.01758ZM10.1191 1.91992L11.0058 3.00337C11.0426 2.97325 11.0694 2.95345 11.1456 2.8942L10.2861 1.78906L9.42667 0.68393C9.39118 0.71153 9.30512 0.777038 9.2325 0.836472L10.1191 1.91992ZM10.2861 1.78906L11.1458 2.89402C11.2139 2.84107 11.2848 2.78823 11.3589 2.73488L10.541 1.59863L9.72312 0.462388C9.62495 0.533055 9.52577 0.606825 9.42644 0.68411L10.2861 1.78906ZM10.541 1.59863L11.3587 2.73503C11.4109 2.69746 11.4423 2.67468 11.4745 2.65249L10.6797 1.5L9.88485 0.347508C9.82359 0.389756 9.76319 0.433556 9.72334 0.462232L10.541 1.59863ZM10.6797 1.5L11.4747 2.65235C11.5278 2.61572 11.5502 2.59988 11.5783 2.58124L10.8037 1.41504L10.0291 0.248834C9.97368 0.285669 9.91403 0.327376 9.88465 0.347649L10.6797 1.5ZM10.8037 1.41504L11.5781 2.58137C11.6185 2.55452 11.6616 2.52738 11.7234 2.48848L10.9775 1.30371L10.2317 0.118946C10.1769 0.153398 10.1035 0.199474 10.0293 0.248704L10.8037 1.41504ZM10.9775 1.30371L11.7236 2.48836C11.7968 2.44224 11.871 2.39739 11.9463 2.35378L11.2441 1.14258L10.542 -0.0686256C10.4374 -0.00795924 10.3339 0.054583 10.2315 0.119059L10.9775 1.30371ZM11.2441 1.14258L11.9461 2.35387C12.0136 2.31476 12.0424 2.29756 12.0781 2.27785L11.4023 1.05176L10.7265 -0.17433C10.6557 -0.135308 10.5798 -0.0905432 10.5422 -0.0687127L11.2441 1.14258ZM11.4023 1.05176L12.0783 2.27777C12.1216 2.25389 12.1606 2.23426 12.2415 2.19241L11.5977 0.949219L10.9539 -0.29397C10.904 -0.268128 10.8118 -0.221338 10.7264 -0.174258L11.4023 1.05176ZM11.5977 0.949219L12.2414 2.19246C12.3334 2.1448 12.2927 2.16452 12.3285 2.14661L11.7021 0.894531L11.0758 -0.357547C11.0423 -0.340809 11.0126 -0.325057 10.9936 -0.314982C10.9704 -0.302666 10.9631 -0.298777 10.954 -0.294025L11.5977 0.949219ZM11.7021 0.894531L12.3286 2.14656C12.3841 2.11881 12.4408 2.09142 12.4989 2.06426L11.9062 0.795898L11.3136 -0.472463C11.2346 -0.435575 11.1553 -0.397312 11.0757 -0.357501L11.7021 0.894531ZM11.9062 0.795898L12.4989 2.06429C12.5219 2.05351 12.5357 2.04761 12.5853 2.02526L12.0098 0.749023L11.4342 -0.52721C11.4147 -0.518405 11.3592 -0.493762 11.3136 -0.472493L11.9062 0.795898ZM12.0098 0.749023L12.5853 2.02524C13.4741 1.6244 14.4594 1.4 15.5 1.4L15.5 0L15.5 -1.4C14.0523 -1.4 12.6754 -1.08698 11.4342 -0.527188L12.0098 0.749023Z" fill="#9FA5B2" mask="url(#path-1-inside-1_78_455)"/>
</svg>
