<svg width="24" height="17" viewBox="0 0 24 17" fill="none" xmlns="http://www.w3.org/2000/svg">
<path d="M8.5 0C8.99636 -2.96186e-08 9.12847 0.647577 8.73438 0.949219C6.4644 2.68515 5 5.42163 5 8.5C5 11.6346 6.51899 14.4128 8.86035 16.1426C9.18933 16.3856 9.02911 16.9958 8.62012 16.999C8.58019 16.9996 8.54006 17 8.5 17C3.80559 17 4.10399e-07 13.1944 0 8.5C3.13773e-06 3.80559 3.80559 7.19899e-06 8.5 0ZM15.5 0C20.1944 -1.22597e-07 24 3.80559 24 8.5C24 10.5449 23.2773 12.4212 22.0742 13.8877C21.8504 14.1977 21.5197 14.7451 21.5195 15.2754C21.5196 15.6525 22.1638 16.0404 22.8447 16.3457C23.1515 16.4835 23.0569 16.9413 22.7217 16.9443L15.6201 16.999C15.5802 16.9996 15.5401 17 15.5 17C15.0938 17 14.6947 16.9691 14.3037 16.9141C14.295 16.9128 14.2861 16.9124 14.2773 16.9111C14.1685 16.8954 14.0606 16.8762 13.9531 16.8564C13.9232 16.8509 13.8931 16.8466 13.8633 16.8408C13.7728 16.8232 13.6832 16.8027 13.5938 16.7822C13.5491 16.772 13.5044 16.7619 13.46 16.751C13.3582 16.7259 13.2575 16.6986 13.1572 16.6699C13.1364 16.664 13.1155 16.6585 13.0947 16.6523C12.9969 16.6235 12.9 16.5927 12.8037 16.5605C12.7666 16.5481 12.7293 16.5363 12.6924 16.5234C12.605 16.4929 12.5187 16.4601 12.4326 16.4268C12.3918 16.411 12.351 16.3953 12.3105 16.3789C12.2232 16.3435 12.1367 16.3067 12.0508 16.2686C12.0204 16.2551 11.9901 16.2414 11.96 16.2275C11.872 16.1872 11.7846 16.1458 11.6982 16.1025C11.6589 16.0828 11.62 16.0623 11.5811 16.042C11.5115 16.0058 11.4425 15.9687 11.374 15.9307C11.3269 15.9044 11.28 15.8777 11.2334 15.8506C11.1624 15.8093 11.0921 15.7669 11.0225 15.7236C10.9732 15.693 10.9246 15.6615 10.876 15.6299C10.8154 15.5905 10.7548 15.5516 10.6953 15.5107C10.6601 15.4866 10.6257 15.4612 10.5908 15.4365C10.5157 15.3832 10.4405 15.3301 10.3672 15.2744C10.3372 15.2517 10.3079 15.2282 10.2783 15.2051C10.2083 15.1505 10.1385 15.0958 10.0703 15.0391C10.0076 14.987 9.94687 14.9327 9.88574 14.8789C9.5822 14.6115 9.2979 14.3233 9.03516 14.0156C9.00998 13.9862 8.98377 13.9576 8.95898 13.9277C8.91695 13.8771 8.87681 13.825 8.83594 13.7734C8.79533 13.7222 8.75428 13.6713 8.71484 13.6191C8.68058 13.5738 8.64763 13.5275 8.61426 13.4814C8.56423 13.4124 8.51478 13.343 8.4668 13.2725C8.44578 13.2416 8.42589 13.2099 8.40527 13.1787C8.35685 13.1054 8.30889 13.0319 8.2627 12.957C8.23004 12.9041 8.19851 12.8505 8.16699 12.7969C8.13126 12.736 8.09577 12.6751 8.06152 12.6133C8.02258 12.543 7.98523 12.4719 7.94824 12.4004C7.92857 12.3624 7.90876 12.3245 7.88965 12.2861C7.85376 12.2141 7.81905 12.1415 7.78516 12.0684C7.75871 12.0113 7.73224 11.9542 7.70703 11.8965C7.68243 11.8401 7.65817 11.7836 7.63477 11.7266C7.6073 11.6597 7.58146 11.5921 7.55566 11.5244C7.52904 11.4545 7.50333 11.3842 7.47852 11.3135C7.46169 11.2655 7.44567 11.2173 7.42969 11.1689C7.40536 11.0953 7.38075 11.0217 7.3584 10.9473C7.3355 10.871 7.31474 10.794 7.29395 10.7168C7.28108 10.669 7.26791 10.6213 7.25586 10.5732C7.23501 10.4901 7.21565 10.4064 7.19727 10.3223C7.18613 10.2713 7.17525 10.2202 7.16504 10.1689C7.14995 10.0932 7.13708 10.0169 7.12402 9.94043C7.11315 9.87676 7.10124 9.81317 7.0918 9.74902C7.08149 9.67902 7.07305 9.60863 7.06445 9.53809C7.05646 9.47249 7.0475 9.40687 7.04102 9.34082C7.03366 9.26597 7.02981 9.19065 7.02441 9.11523C7.01886 9.03766 7.01224 8.95997 7.00879 8.88184C7.00319 8.75525 7 8.62797 7 8.5L7.01074 8.0625C7.01747 7.9298 7.02827 7.79801 7.04102 7.66699C7.04412 7.63504 7.04732 7.60314 7.05078 7.57129C7.06135 7.47407 7.07407 7.37745 7.08789 7.28125C7.0937 7.24082 7.0991 7.2004 7.10547 7.16016C7.14601 6.9042 7.19788 6.6521 7.26074 6.4043C7.26803 6.37558 7.27563 6.34696 7.2832 6.31836C7.30613 6.23181 7.33088 6.14598 7.35645 6.06055C7.36971 6.0162 7.38252 5.97177 7.39648 5.92773C7.43287 5.81305 7.47163 5.69943 7.5127 5.58691C7.52053 5.56543 7.52813 5.54386 7.53613 5.52246C7.57292 5.42417 7.61206 5.32699 7.65234 5.23047C7.66555 5.19881 7.67881 5.1672 7.69238 5.13574C7.72621 5.05738 7.76078 4.97946 7.79688 4.90234C7.81756 4.85814 7.83893 4.8143 7.86035 4.77051C7.9649 4.55686 8.0787 4.34863 8.2002 4.14551C8.22441 4.105 8.24857 4.06449 8.27344 4.02441C8.39943 3.82153 8.53267 3.62363 8.6748 3.43262C8.7003 3.39834 8.72693 3.36494 8.75293 3.33105C8.79784 3.27256 8.84327 3.21451 8.88965 3.15723C8.9234 3.11552 8.95767 3.07426 8.99219 3.0332C9.04449 2.97104 9.09831 2.91023 9.15234 2.84961C9.17828 2.8205 9.20317 2.79047 9.22949 2.76172C9.30276 2.68175 9.37786 2.60348 9.4541 2.52637C9.49908 2.48084 9.54483 2.43611 9.59082 2.3916C9.63402 2.34982 9.6776 2.30844 9.72168 2.26758C9.76307 2.22919 9.80453 2.19089 9.84668 2.15332C9.89837 2.10727 9.9511 2.06238 10.0039 2.01758C10.0423 1.985 10.0802 1.95182 10.1191 1.91992C10.1739 1.87515 10.2303 1.83249 10.2861 1.78906C10.3698 1.72395 10.4549 1.66064 10.541 1.59863C10.587 1.56551 10.633 1.53222 10.6797 1.5C10.7209 1.47155 10.7619 1.44278 10.8037 1.41504C10.861 1.377 10.9193 1.34039 10.9775 1.30371C11.0654 1.24841 11.1542 1.19472 11.2441 1.14258C11.2967 1.11211 11.3491 1.08113 11.4023 1.05176C11.4667 1.01628 11.5323 0.983065 11.5977 0.949219C11.6326 0.931152 11.667 0.912127 11.7021 0.894531C11.7697 0.860748 11.8377 0.827922 11.9062 0.795898C11.9405 0.779873 11.9752 0.764603 12.0098 0.749023C13.0748 0.268711 14.2558 2.13077e-06 15.5 0Z" fill="#0070F5"/>
</svg>
