<svg width="242" height="229" viewBox="0 0 242 229" fill="none" xmlns="http://www.w3.org/2000/svg">
<path d="M3.52 156H10.176L29.248 198.432C35.008 195.808 45.76 186.912 48.192 156H55.296V204.064H48.576V184.992C43.712 196.448 37.312 201.76 32.448 204.064H24.512L10.176 172.384V204.064H3.52V156ZM78.0765 204.576C69.4365 204.576 62.3965 197.536 62.3965 188.832V163.488H69.0525V188.832C69.0525 193.824 73.2125 197.856 78.0765 197.856C83.1325 197.856 86.9725 193.824 86.9725 188.832V163.488H93.7565V188.832C93.7565 197.536 86.6525 204.576 78.0765 204.576ZM100.77 156H107.362V204H100.77V156ZM114.395 156H120.987V181.28C127.707 180.192 142.235 175.776 148.699 156H155.739C152.027 168.416 145.819 176.032 139.419 180.64L155.675 204.064H147.547L133.595 184.096C128.667 186.528 123.995 187.552 120.987 187.872V204.064H114.395V156ZM159.895 156H166.615V174.816L175.767 165.984C185.687 156.384 200.215 171.424 190.231 180.96L181.399 189.344L192.599 204H184.215L172.439 188.64L185.623 176.16C189.207 172.704 183.959 167.328 180.375 170.784L166.615 184.032V204H159.895C159.895 187.68 159.895 172.384 159.895 156ZM218.299 163.296C229.691 163.296 238.843 172.448 238.843 183.84C238.843 195.168 229.691 204.384 218.299 204.384C206.971 204.384 197.691 195.168 197.691 183.84C197.691 172.448 206.971 163.296 218.299 163.296ZM218.299 169.952C210.619 169.952 204.411 176.16 204.411 183.84C204.411 191.456 210.619 197.728 218.299 197.728C225.979 197.728 232.123 191.456 232.123 183.84C232.123 176.16 225.979 169.952 218.299 169.952Z" fill="white"/>
<path d="M175.013 0.216141C176.321 0.22782 176.689 2.0148 175.492 2.55206C172.834 3.74336 170.323 5.25556 170.323 6.72717C170.323 8.82799 171.652 10.9968 172.526 12.1963C172.77 12.4952 173.009 12.7984 173.243 13.1059C173.262 13.1277 173.273 13.1395 173.273 13.1395L173.266 13.1367C177.492 18.7025 180 25.6431 180 33.1699C180 51.4859 165.151 66.3341 146.834 66.3341C142.648 66.3341 138.644 65.558 134.956 64.143C133.927 63.7768 127.276 61.4666 126.102 62.5382C124.412 64.0773 126.213 69.4921 126.975 71.5363C127.066 71.7636 127.154 71.9921 127.24 72.2218C127.267 72.2894 127.282 72.3256 127.282 72.3256L127.277 72.3205C128.605 75.9076 129.332 79.7868 129.332 83.8358C129.332 102.152 114.483 117 96.1658 117C96.0093 117 95.853 116.998 95.697 116.996L67.9874 116.784C66.6793 116.772 66.3112 114.985 67.5084 114.448C70.1655 113.257 72.6769 111.744 72.6772 110.273C72.6772 108.202 71.3854 106.065 70.5117 104.856C65.8176 99.1339 63 91.814 63 83.8358C63 65.5198 77.8489 50.6716 96.1658 50.6716C100.984 50.6716 105.563 51.6996 109.694 53.5476L109.692 53.5447C109.718 53.5565 116.69 56.6199 118.072 55.3554C119.545 54.0066 117.886 49.6821 117.014 47.7021C114.872 43.3137 113.668 38.3823 113.668 33.1699C113.668 14.8539 128.517 0.00574145 146.834 0.00570292C146.838 0.00570292 146.842 0.00570166 146.846 0.00570292L146.834 0L175.013 0.216141Z" fill="white"/>
</svg>
