<svg width="89" height="19" viewBox="0 0 89 19" fill="none" xmlns="http://www.w3.org/2000/svg">
<path d="M-7.24196e-06 -1.43051e-06H2.49599L9.64799 15.912C11.808 14.928 15.84 11.592 16.752 -1.43051e-06H19.416V18.024H16.896V10.872C15.072 15.168 12.672 17.16 10.848 18.024H7.87199L2.49599 6.144V18.024H-7.24196e-06V-1.43051e-06ZM27.9587 18.216C24.7187 18.216 22.0787 15.576 22.0787 12.312V2.808H24.5747V12.312C24.5747 14.184 26.1347 15.696 27.9587 15.696C29.8547 15.696 31.2947 14.184 31.2947 12.312V2.808H33.8387V12.312C33.8387 15.576 31.1747 18.216 27.9587 18.216ZM36.4687 -1.43051e-06H38.9407V18H36.4687V-1.43051e-06ZM41.5781 -1.43051e-06H44.0501V9.48C46.5701 9.072 52.0181 7.416 54.4421 -1.43051e-06H57.0821C55.6901 4.656 53.3621 7.512 50.9621 9.24L57.0581 18.024H54.0101L48.7781 10.536C46.9301 11.448 45.1781 11.832 44.0501 11.952V18.024H41.5781V-1.43051e-06ZM58.6406 -1.43051e-06H61.1606V7.056L64.5926 3.744C68.3126 0.144 73.7606 5.784 70.0166 9.36L66.7046 12.504L70.9046 18H67.7606L63.3446 12.24L68.2886 7.56C69.6326 6.264 67.6646 4.248 66.3206 5.544L61.1606 10.512V18H58.6406C58.6406 11.88 58.6406 6.144 58.6406 -1.43051e-06ZM80.5421 2.736C84.8141 2.736 88.2461 6.168 88.2461 10.44C88.2461 14.688 84.8141 18.144 80.5421 18.144C76.2941 18.144 72.8141 14.688 72.8141 10.44C72.8141 6.168 76.2941 2.736 80.5421 2.736ZM80.5421 5.232C77.6621 5.232 75.3341 7.56 75.3341 10.44C75.3341 13.296 77.6621 15.648 80.5421 15.648C83.4221 15.648 85.7261 13.296 85.7261 10.44C85.7261 7.56 83.4221 5.232 80.5421 5.232Z" fill="#0070F5"/>
</svg>
