<svg width="236" height="49" viewBox="0 0 236 49" fill="none" xmlns="http://www.w3.org/2000/svg">
<path d="M-1.93119e-05 -3.8147e-06H6.65598L25.728 42.432C31.488 39.808 42.24 30.912 44.672 -3.8147e-06H51.776V48.064H45.056V28.992C40.192 40.448 33.792 45.76 28.928 48.064H20.992L6.65598 16.384V48.064H-1.93119e-05V-3.8147e-06ZM74.5565 48.576C65.9165 48.576 58.8765 41.536 58.8765 32.832V7.488H65.5325V32.832C65.5325 37.824 69.6925 41.856 74.5565 41.856C79.6125 41.856 83.4525 37.824 83.4525 32.832V7.488H90.2365V32.832C90.2365 41.536 83.1325 48.576 74.5565 48.576ZM97.25 -3.8147e-06H103.842V48H97.25V-3.8147e-06ZM110.875 -3.8147e-06H117.467V25.28C124.187 24.192 138.715 19.776 145.179 -3.8147e-06H152.219C148.507 12.416 142.299 20.032 135.899 24.64L152.155 48.064H144.027L130.075 28.096C125.147 30.528 120.475 31.552 117.467 31.872V48.064H110.875V-3.8147e-06ZM156.375 -3.8147e-06H163.095V18.816L172.247 9.984C182.167 0.383999 196.695 15.424 186.711 24.96L177.879 33.344L189.079 48H180.695L168.919 32.64L182.103 20.16C185.687 16.704 180.439 11.328 176.855 14.784L163.095 28.032V48H156.375C156.375 31.68 156.375 16.384 156.375 -3.8147e-06ZM214.779 7.296C226.171 7.296 235.323 16.448 235.323 27.84C235.323 39.168 226.171 48.384 214.779 48.384C203.451 48.384 194.171 39.168 194.171 27.84C194.171 16.448 203.451 7.296 214.779 7.296ZM214.779 13.952C207.099 13.952 200.891 20.16 200.891 27.84C200.891 35.456 207.099 41.728 214.779 41.728C222.459 41.728 228.603 35.456 228.603 27.84C228.603 20.16 222.459 13.952 214.779 13.952Z" fill="white"/>
</svg>
