<svg width="124" height="36" viewBox="0 0 124 36" fill="none" xmlns="http://www.w3.org/2000/svg">
<path d="M22.0196 7.04064C22.2767 7.04284 22.3491 7.37885 22.1137 7.47987C21.5914 7.70388 21.0977 7.98823 21.0976 8.26494C21.0976 8.65996 21.359 9.06777 21.5307 9.29332C21.5788 9.34952 21.6258 9.40654 21.6718 9.46435C21.6755 9.46847 21.6775 9.47068 21.6775 9.47068L21.6763 9.47014C22.5069 10.5167 23 11.8218 23 13.2371C23 16.6811 20.081 19.4731 16.4802 19.4731C15.6574 19.4731 14.8702 19.3272 14.1452 19.0611C13.943 18.9922 12.6354 18.5578 12.4046 18.7593C12.0725 19.0487 12.4264 20.0669 12.5763 20.4513C12.5942 20.494 12.6115 20.537 12.6284 20.5802C12.6338 20.5929 12.6366 20.5997 12.6366 20.5997L12.6356 20.5987C12.8967 21.2732 13.0396 22.0026 13.0396 22.764C13.0396 26.208 10.1205 29 6.51978 29C6.48901 29 6.45828 28.9997 6.42762 28.9992L0.980439 28.9594C0.723279 28.9572 0.650924 28.6212 0.886263 28.5201C1.4086 28.2961 1.9023 28.0118 1.90235 27.7351C1.90235 27.3457 1.64841 26.9439 1.47666 26.7164C0.55389 25.6406 0 24.2642 0 22.764C4.73371e-06 19.32 2.91901 16.528 6.51978 16.528C7.46703 16.528 8.36708 16.7213 9.17924 17.0688L9.17868 17.0682C9.18392 17.0704 10.5544 17.6465 10.8261 17.4087C11.1157 17.1551 10.7896 16.3419 10.6182 15.9696C10.197 15.1444 9.96045 14.2172 9.96045 13.2371C9.96045 9.79303 12.8795 7.00108 16.4802 7.00107C16.481 7.00107 16.4817 7.00107 16.4825 7.00107L16.4802 7L22.0196 7.04064Z" fill="#0070F5"/>
<path d="M34.32 9H36.816L43.968 24.912C46.128 23.928 50.16 20.592 51.072 9H53.736V27.024H51.216V19.872C49.392 24.168 46.992 26.16 45.168 27.024H42.192L36.816 15.144V27.024H34.32V9ZM62.2787 27.216C59.0387 27.216 56.3987 24.576 56.3987 21.312V11.808H58.8947V21.312C58.8947 23.184 60.4547 24.696 62.2787 24.696C64.1747 24.696 65.6147 23.184 65.6147 21.312V11.808H68.1587V21.312C68.1587 24.576 65.4947 27.216 62.2787 27.216ZM70.7888 9H73.2608V27H70.7888V9ZM75.8981 9H78.3701V18.48C80.8901 18.072 86.3381 16.416 88.7621 9H91.4021C90.0101 13.656 87.6821 16.512 85.2821 18.24L91.3781 27.024H88.3301L83.0981 19.536C81.2501 20.448 79.4981 20.832 78.3701 20.952V27.024H75.8981V9ZM92.9606 9H95.4806V16.056L98.9126 12.744C102.633 9.144 108.081 14.784 104.337 18.36L101.025 21.504L105.225 27H102.081L97.6646 21.24L102.609 16.56C103.953 15.264 101.985 13.248 100.641 14.544L95.4806 19.512V27H92.9606C92.9606 20.88 92.9606 15.144 92.9606 9ZM114.862 11.736C119.134 11.736 122.566 15.168 122.566 19.44C122.566 23.688 119.134 27.144 114.862 27.144C110.614 27.144 107.134 23.688 107.134 19.44C107.134 15.168 110.614 11.736 114.862 11.736ZM114.862 14.232C111.982 14.232 109.654 16.56 109.654 19.44C109.654 22.296 111.982 24.648 114.862 24.648C117.742 24.648 120.046 22.296 120.046 19.44C120.046 16.56 117.742 14.232 114.862 14.232Z" fill="#0070F5"/>
</svg>
