<svg width="24" height="24" viewBox="0 0 24 24" fill="none" xmlns="http://www.w3.org/2000/svg">
<g clip-path="url(#clip0_78_383)">
<path d="M7.52162 7.44476C9.15469 6.13189 11.3585 4.99805 13.9997 4.99805C16.641 4.99805 18.8448 6.13189 20.4778 7.44476C22.1067 8.75764 23.2649 10.3251 23.8523 11.4152C24.0481 11.7812 24.0481 12.2149 23.8523 12.5809C23.2649 13.671 22.1067 15.2385 20.4778 16.5513C18.8448 17.8682 16.6451 18.998 13.9997 18.998C11.3543 18.998 9.15469 17.8642 7.52162 16.5513C6.84673 16.0063 6.251 15.4175 5.74274 14.8366L2.00585 16.9173C1.48511 17.2078 0.822714 17.1282 0.393617 16.7224C-0.0354799 16.3166 -0.122966 15.688 0.172819 15.1867L2.08501 12L0.176985 8.81334C-0.122966 8.31206 -0.031314 7.68347 0.397783 7.27767C0.826879 6.87187 1.48511 6.79231 2.01002 7.08273L5.74691 9.16343C6.25516 8.58259 6.8509 7.99378 7.52579 7.44874L7.52162 7.44476ZM18.6656 12C18.6656 11.2959 18.0699 10.7269 17.3325 10.7269C16.5951 10.7269 15.9994 11.2959 15.9994 12C15.9994 12.7042 16.5951 13.2731 17.3325 13.2731C18.0699 13.2731 18.6656 12.7042 18.6656 12Z" fill="#0070F5"/>
</g>
<defs>
<clipPath id="clip0_78_383">
<rect width="24" height="24" fill="white"/>
</clipPath>
</defs>
</svg>
