<svg width="26" height="26" viewBox="0 0 26 26" fill="none" xmlns="http://www.w3.org/2000/svg">
<path d="M15.0001 6.69824C17.4329 6.69835 19.4861 7.74178 21.0382 8.98926V8.99023C22.3951 10.0839 23.4071 11.3633 24.005 12.3457L24.2365 12.7471C24.3206 12.9057 24.3206 13.0904 24.2365 13.249C23.6898 14.2634 22.5891 15.7558 21.0382 17.0059V17.0068C19.487 18.2575 17.4379 19.2977 15.0001 19.2979C12.7149 19.2979 10.7702 18.3804 9.25696 17.2373L8.96008 17.0059C8.32036 16.4891 7.75388 15.9293 7.26965 15.376L6.89661 14.9492L6.40247 15.2246L2.66516 17.3057C2.40709 17.4496 2.07752 17.4062 1.87415 17.2139C1.68131 17.0313 1.64658 16.7605 1.77551 16.542L3.68567 13.3604L3.90149 13L3.68567 12.6406L1.77747 9.4541C1.64991 9.24093 1.68285 8.97166 1.87903 8.78613C2.05644 8.61851 2.32763 8.56295 2.56946 8.64941L2.67102 8.69531L6.40637 10.7754L6.90051 11.0508L7.27356 10.624C7.75812 10.0703 8.32568 9.51024 8.96594 8.99316L9.23352 8.77637C10.7504 7.62514 12.7069 6.69824 15.0001 6.69824Z" stroke="#9FA5B2" stroke-width="1.4"/>
<path d="M18.3325 11.7271C19.0699 11.7271 19.6656 12.296 19.6656 13.0001C19.6656 13.7043 19.0699 14.2732 18.3325 14.2732C17.5951 14.2732 16.9994 13.7043 16.9994 13.0001C16.9994 12.296 17.5951 11.7271 18.3325 11.7271Z" stroke="#9FA5B2" stroke-width="1.4"/>
</svg>
