<svg width="30" height="30" viewBox="0 0 30 30" fill="none" xmlns="http://www.w3.org/2000/svg">
<g clip-path="url(#clip0_82_168)">
<rect width="30" height="30" rx="15" fill="#EDF0F6"/>
<g clip-path="url(#clip1_82_168)">
<path d="M16.625 26.125C17.1426 26.5156 17.8457 26.54 18.3975 26.1982C18.9492 25.8564 19.2227 25.2021 19.0957 24.5674L18.6221 22.1943C19.5693 21.7549 20.4238 21.2227 21.1807 20.6563C21.9277 20.0947 22.5967 19.4893 23.168 18.8838L27.7139 21.5352C28.3242 21.8916 29.1006 21.7939 29.5986 21.2959C30.0967 20.7979 30.209 20.0264 29.8574 19.4111L27.6211 15.5L29.8574 11.5889C30.209 10.9736 30.1016 10.2021 29.5986 9.7041C29.0957 9.20605 28.3242 9.1084 27.7139 9.46484L23.168 12.1162C22.5918 11.5156 21.9277 10.9053 21.1807 10.3437C20.4238 9.77734 19.5693 9.24512 18.6221 8.80566L19.0957 6.43262C19.2227 5.79785 18.9443 5.14844 18.3975 4.80664C17.8506 4.46484 17.1475 4.48926 16.625 4.87988L12.8359 7.72168C10.1553 7.91699 7.87989 9.04004 6.13672 10.3486C4.22266 11.7842 2.85547 13.5078 2.15235 14.7188C1.86915 15.2022 1.86915 15.8027 2.15235 16.2861C2.85547 17.4971 4.22754 19.2207 6.13672 20.6563C7.88477 21.9648 10.1553 23.0879 12.8359 23.2832L16.625 26.125ZM11.3125 15.5C11.3125 15.9144 11.1479 16.3118 10.8549 16.6049C10.5618 16.8979 10.1644 17.0625 9.75001 17.0625C9.3356 17.0625 8.93818 16.8979 8.64515 16.6049C8.35213 16.3118 8.18751 15.9144 8.18751 15.5C8.1875 15.0856 8.35213 14.6882 8.64515 14.3951C8.93818 14.1021 9.3356 13.9375 9.75001 13.9375C10.1644 13.9375 10.5618 14.1021 10.8549 14.3951C11.1479 14.6882 11.3125 15.0856 11.3125 15.5Z" fill="#C0C6D3"/>
</g>
</g>
<defs>
<clipPath id="clip0_82_168">
<rect width="30" height="30" rx="15" fill="white"/>
</clipPath>
<clipPath id="clip1_82_168">
<rect width="28.125" height="25" fill="white" transform="translate(30.0625 28) rotate(180)"/>
</clipPath>
</defs>
</svg>
