<svg width="117" height="117" viewBox="0 0 117 117" fill="none" xmlns="http://www.w3.org/2000/svg">
<path d="M112.013 0.216141C113.321 0.22782 113.689 2.0148 112.492 2.55206C109.834 3.74336 107.323 5.25556 107.323 6.72717C107.323 8.82799 108.652 10.9968 109.526 12.1963C109.77 12.4952 110.009 12.7984 110.243 13.1059C110.262 13.1277 110.273 13.1395 110.273 13.1395L110.266 13.1367C114.492 18.7025 117 25.6431 117 33.1699C117 51.4859 102.151 66.3341 83.8342 66.3341C79.6484 66.3341 75.6439 65.558 71.9561 64.143C70.9274 63.7768 64.2759 61.4666 63.1019 62.5382C61.4124 64.0773 63.2127 69.4921 63.9751 71.5363C64.0659 71.7636 64.1544 71.9921 64.2403 72.2218C64.2675 72.2894 64.2819 72.3256 64.2819 72.3256L64.2768 72.3205C65.6051 75.9076 66.3316 79.7868 66.3316 83.8358C66.3316 102.152 51.4827 117 33.1658 117C33.0093 117 32.853 116.998 32.697 116.996L4.98745 116.784C3.67929 116.772 3.31122 114.985 4.50838 114.448C7.16546 113.257 9.67691 111.744 9.67719 110.273C9.67719 108.202 8.38539 106.065 7.51168 104.856C2.81761 99.1339 0 91.814 0 83.8358C2.40802e-05 65.5198 14.8489 50.6716 33.1658 50.6716C37.9845 50.6716 42.563 51.6996 46.6944 53.5476L46.6915 53.5447C46.7182 53.5565 53.69 56.6199 55.0718 55.3554C56.5453 54.0066 54.8863 49.6821 54.0144 47.7021C51.8716 43.3137 50.6684 38.3823 50.6684 33.1699C50.6684 14.8539 65.5173 0.00574145 83.8342 0.00570292C83.838 0.00570292 83.8418 0.00570166 83.8456 0.00570292L83.8342 0L112.013 0.216141Z" fill="white"/>
</svg>
