<svg width="125" height="125" viewBox="0 0 125 125" fill="none" xmlns="http://www.w3.org/2000/svg">
<rect width="125" height="125" fill="url(#paint0_linear_79_77)"/>
<path d="M94.1013 28.1256C94.8616 28.1324 95.0756 29.171 94.3797 29.4832C92.8354 30.1756 91.3757 31.0545 91.3756 31.9098C91.3756 33.1308 92.1483 34.3913 92.6561 35.0884C92.7981 35.2622 92.9371 35.4384 93.0731 35.6171C93.0842 35.6298 93.09 35.6367 93.09 35.6367L93.0864 35.635C95.5421 38.8698 97 42.9037 97 47.2782C97 57.9234 88.3699 66.5532 77.7241 66.5532C75.2914 66.5531 72.964 66.1021 70.8207 65.2797C70.2227 65.0668 66.3569 63.7242 65.6746 64.347C64.6927 65.2415 65.739 68.3886 66.1821 69.5767C66.2349 69.7088 66.2863 69.8415 66.3362 69.9751C66.352 70.0143 66.3604 70.0354 66.3604 70.0354L66.3574 70.0324C67.1295 72.1172 67.5517 74.3718 67.5517 76.7251C67.5517 87.3703 58.9216 96 48.2759 96C48.1849 96 48.0941 95.9989 48.0034 95.9977L31.8987 95.8744C31.1384 95.8676 30.9245 94.829 31.6203 94.5168C33.1645 93.8244 34.6242 92.9455 34.6243 92.0902C34.6243 90.8866 33.8736 89.6447 33.3658 88.9417C30.6376 85.6163 29 81.362 29 76.7251C29 66.0799 37.6301 57.4502 48.2759 57.4502C51.0764 57.4502 53.7374 58.0476 56.1386 59.1217L56.137 59.12C56.1525 59.1268 60.2044 60.9073 61.0075 60.1724C61.8639 59.3885 60.8997 56.8751 60.393 55.7243C59.1476 53.1738 58.4483 50.3077 58.4483 47.2782C58.4483 36.633 67.0784 28.0033 77.7241 28.0033C77.7263 28.0033 77.7286 28.0033 77.7308 28.0033L77.7241 28L94.1013 28.1256Z" fill="white"/>
<defs>
<linearGradient id="paint0_linear_79_77" x1="62.5" y1="0" x2="62.5" y2="125" gradientUnits="userSpaceOnUse">
<stop stop-color="#3F94FB"/>
<stop offset="1" stop-color="#E4F2FF"/>
</linearGradient>
</defs>
</svg>
